<svg xmlns="http://www.w3.org/2000/svg" width="1200" height="680" viewBox="0 0 1200 680" role="img" aria-label="Controlled street-network geometry comparison"><rect width="100%" height="100%" fill="white"/><text x="600.0" y="27" text-anchor="middle" font-family="sans-serif" font-size="20" font-weight="bold">Controlled street-network geometry comparison</text><text x="600.0" y="48" text-anchor="middle" font-family="sans-serif" font-size="13" fill="#444">Same graph topology, different spatial realization; equal scale in both panels.</text><rect x="55.0" y="95.0" width="540.0" height="520.0" fill="#fafafa" stroke="#bbb"/><text x="325.0" y="80" text-anchor="middle" font-family="sans-serif" font-size="16">Env39 grid-like geometry</text><polyline points="175.146,96.781 175.146,231.173" fill="none" stroke="#35618f" stroke-width="1.7"/><polyline points="486.366,97.218 486.366,147.781" fill="none" stroke="#35618f" stroke-width="1.7"/><polyline points="364.892,98.745 364.892,147.781" fill="none" stroke="#35618f" stroke-width="1.7"/><polyline points="306.729,147.781 364.892,147.781" fill="none" stroke="#35618f" stroke-width="1.7"/><polyline points="306.729,147.781 253.585,147.781 253.585,188.722" fill="none" stroke="#35618f" stroke-width="1.7"/><polyline points="306.729,147.781 306.729,188.722" fill="none" stroke="#35618f" stroke-width="1.7"/><polyline points="364.892,147.781 424.296,147.781" fill="none" stroke="#35618f" stroke-width="1.7"/><polyline points="364.892,147.781 364.892,188.722" fill="none" stroke="#35618f" stroke-width="1.7"/><polyline points="424.296,147.781 486.366,147.781" fill="none" stroke="#35618f" stroke-width="1.7"/><polyline points="424.296,147.781 424.296,188.722" fill="none" stroke="#35618f" stroke-width="1.7"/><polyline points="486.366,147.781 486.366,231.173" fill="none" stroke="#35618f" stroke-width="1.7"/><polyline points="253.585,188.722 306.729,188.722" fill="none" stroke="#35618f" stroke-width="1.7"/><polyline points="253.585,188.722 253.585,231.173" fill="none" stroke="#35618f" stroke-width="1.7"/><polyline points="306.729,188.722 364.892,188.722" fill="none" stroke="#35618f" stroke-width="1.7"/><polyline points="306.729,188.722 306.729,231.173" fill="none" stroke="#35618f" stroke-width="1.7"/><polyline points="364.892,188.722 424.296,188.722" fill="none" stroke="#35618f" stroke-width="1.7"/><polyline points="364.892,188.722 364.892,231.173" fill="none" stroke="#35618f" stroke-width="1.7"/><polyline points="424.296,188.722 424.296,231.173" fill="none" stroke="#35618f" stroke-width="1.7"/><polyline points="110.046,231.173 144.101,231.173" fill="none" stroke="#35618f" stroke-width="1.7"/><polyline points="144.101,231.173 175.146,231.173" fill="none" stroke="#35618f" stroke-width="1.7"/><polyline points="144.101,231.173 144.101,341.290" fill="none" stroke="#35618f" stroke-width="1.7"/><polyline points="175.146,231.173 253.585,231.173" fill="none" stroke="#35618f" stroke-width="1.7"/><polyline points="175.146,231.173 175.146,341.290" fill="none" stroke="#35618f" stroke-width="1.7"/><polyline points="253.585,231.173 306.729,231.173" fill="none" stroke="#35618f" stroke-width="1.7"/><polyline points="253.585,231.173 253.585,285.545" fill="none" stroke="#35618f" stroke-width="1.7"/><polyline points="424.296,231.173 486.366,231.173" fill="none" stroke="#35618f" stroke-width="1.7"/><polyline points="424.296,231.173 364.892,231.173" fill="none" stroke="#35618f" stroke-width="1.7"/><polyline points="424.296,231.173 424.296,285.545" fill="none" stroke="#35618f" stroke-width="1.7"/><polyline points="486.366,231.173 537.600,231.173" fill="none" stroke="#35618f" stroke-width="1.7"/><polyline points="486.366,231.173 486.366,285.545" fill="none" stroke="#35618f" stroke-width="1.7"/><polyline points="364.892,231.173 306.729,231.173" fill="none" stroke="#35618f" stroke-width="1.7"/><polyline points="364.892,231.173 364.892,285.545" fill="none" stroke="#35618f" stroke-width="1.7"/><polyline points="306.729,231.173 306.729,285.318 306.729,285.545" fill="none" stroke="#35618f" stroke-width="1.7"/><polyline points="486.366,285.545 424.296,285.545" fill="none" stroke="#35618f" stroke-width="1.7"/><polyline points="486.366,285.545 486.366,341.290" fill="none" stroke="#35618f" stroke-width="1.7"/><polyline points="253.585,285.545 306.729,285.545" fill="none" stroke="#35618f" stroke-width="1.7"/><polyline points="253.585,285.545 253.585,341.290" fill="none" stroke="#35618f" stroke-width="1.7"/><polyline points="306.729,285.545 364.892,285.545" fill="none" stroke="#35618f" stroke-width="1.7"/><polyline points="306.729,285.545 306.729,341.290" fill="none" stroke="#35618f" stroke-width="1.7"/><polyline points="364.892,285.545 424.296,285.545" fill="none" stroke="#35618f" stroke-width="1.7"/><polyline points="364.892,285.545 364.892,341.290" fill="none" stroke="#35618f" stroke-width="1.7"/><polyline points="424.296,285.545 424.296,285.631 424.296,341.290" fill="none" stroke="#35618f" stroke-width="1.7"/><polyline points="144.101,341.290 175.146,341.290" fill="none" stroke="#35618f" stroke-width="1.7"/><polyline points="144.101,341.290 144.101,452.026" fill="none" stroke="#35618f" stroke-width="1.7"/><polyline points="175.146,341.290 253.585,341.290" fill="none" stroke="#35618f" stroke-width="1.7"/><polyline points="175.146,341.290 175.146,452.026" fill="none" stroke="#35618f" stroke-width="1.7"/><polyline points="253.585,341.290 306.729,341.290" fill="none" stroke="#35618f" stroke-width="1.7"/><polyline points="306.729,341.290 364.892,341.290" fill="none" stroke="#35618f" stroke-width="1.7"/><polyline points="364.892,341.290 424.296,341.290" fill="none" stroke="#35618f" stroke-width="1.7"/><polyline points="364.892,341.290 364.892,452.026" fill="none" stroke="#35618f" stroke-width="1.7"/><polyline points="424.296,341.290 486.366,341.290" fill="none" stroke="#35618f" stroke-width="1.7"/><polyline points="424.296,341.290 424.296,342.061 424.296,452.026" fill="none" stroke="#35618f" stroke-width="1.7"/><polyline points="486.366,341.290 486.366,518.329 486.366,519.854" fill="none" stroke="#35618f" stroke-width="1.7"/><polyline points="144.101,452.026 175.146,452.026" fill="none" stroke="#35618f" stroke-width="1.7"/><polyline points="144.101,452.026 144.101,612.313" fill="none" stroke="#35618f" stroke-width="1.7"/><polyline points="175.146,452.026 364.892,452.026" fill="none" stroke="#35618f" stroke-width="1.7"/><polyline points="175.146,452.026 175.146,561.931 364.892,561.931" fill="none" stroke="#35618f" stroke-width="1.7"/><polyline points="364.892,452.026 424.296,452.026" fill="none" stroke="#35618f" stroke-width="1.7"/><polyline points="364.892,452.026 364.892,519.854" fill="none" stroke="#35618f" stroke-width="1.7"/><polyline points="424.296,452.026 424.296,452.054 424.296,519.854" fill="none" stroke="#35618f" stroke-width="1.7"/><polyline points="424.296,519.854 486.366,519.854" fill="none" stroke="#35618f" stroke-width="1.7"/><polyline points="424.296,519.854 364.892,519.854" fill="none" stroke="#35618f" stroke-width="1.7"/><polyline points="486.366,519.854 539.954,519.854" fill="none" stroke="#35618f" stroke-width="1.7"/><polyline points="486.366,519.854 486.366,561.931" fill="none" stroke="#35618f" stroke-width="1.7"/><polyline points="364.892,519.854 364.892,561.931" fill="none" stroke="#35618f" stroke-width="1.7"/><polyline points="364.892,561.931 486.366,561.931" fill="none" stroke="#35618f" stroke-width="1.7"/><polyline points="364.892,561.931 364.892,613.219" fill="none" stroke="#35618f" stroke-width="1.7"/><polyline points="486.366,561.931 538.921,561.931" fill="none" stroke="#35618f" stroke-width="1.7"/><polyline points="486.366,561.931 486.366,611.347" fill="none" stroke="#35618f" stroke-width="1.7"/><circle cx="175.146" cy="96.781" r="2.2" fill="#b33a3a"/><circle cx="486.366" cy="97.218" r="2.2" fill="#b33a3a"/><circle cx="364.892" cy="98.745" r="2.2" fill="#b33a3a"/><circle cx="306.729" cy="147.781" r="2.2" fill="#b33a3a"/><circle cx="364.892" cy="147.781" r="2.2" fill="#b33a3a"/><circle cx="424.296" cy="147.781" r="2.2" fill="#b33a3a"/><circle cx="486.366" cy="147.781" r="2.2" fill="#b33a3a"/><circle cx="253.585" cy="188.722" r="2.2" fill="#b33a3a"/><circle cx="306.729" cy="188.722" r="2.2" fill="#b33a3a"/><circle cx="364.892" cy="188.722" r="2.2" fill="#b33a3a"/><circle cx="424.296" cy="188.722" r="2.2" fill="#b33a3a"/><circle cx="110.046" cy="231.173" r="2.2" fill="#b33a3a"/><circle cx="144.101" cy="231.173" r="2.2" fill="#b33a3a"/><circle cx="175.146" cy="231.173" r="2.2" fill="#b33a3a"/><circle cx="253.585" cy="231.173" r="2.2" fill="#b33a3a"/><circle cx="424.296" cy="231.173" r="2.2" fill="#b33a3a"/><circle cx="486.366" cy="231.173" r="2.2" fill="#b33a3a"/><circle cx="537.600" cy="231.173" r="2.2" fill="#b33a3a"/><circle cx="364.892" cy="231.173" r="2.2" fill="#b33a3a"/><circle cx="306.729" cy="231.173" r="2.2" fill="#b33a3a"/><circle cx="486.366" cy="285.545" r="2.2" fill="#b33a3a"/><circle cx="253.585" cy="285.545" r="2.2" fill="#b33a3a"/><circle cx="306.729" cy="285.545" r="2.2" fill="#b33a3a"/><circle cx="364.892" cy="285.545" r="2.2" fill="#b33a3a"/><circle cx="424.296" cy="285.545" r="2.2" fill="#b33a3a"/><circle cx="144.101" cy="341.290" r="2.2" fill="#b33a3a"/><circle cx="175.146" cy="341.290" r="2.2" fill="#b33a3a"/><circle cx="253.585" cy="341.290" r="2.2" fill="#b33a3a"/><circle cx="306.729" cy="341.290" r="2.2" fill="#b33a3a"/><circle cx="364.892" cy="341.290" r="2.2" fill="#b33a3a"/><circle cx="424.296" cy="341.290" r="2.2" fill="#b33a3a"/><circle cx="486.366" cy="341.290" r="2.2" fill="#b33a3a"/><circle cx="144.101" cy="452.026" r="2.2" fill="#b33a3a"/><circle cx="175.146" cy="452.026" r="2.2" fill="#b33a3a"/><circle cx="364.892" cy="452.026" r="2.2" fill="#b33a3a"/><circle cx="424.296" cy="452.026" r="2.2" fill="#b33a3a"/><circle cx="424.296" cy="519.854" r="2.2" fill="#b33a3a"/><circle cx="486.366" cy="519.854" r="2.2" fill="#b33a3a"/><circle cx="539.954" cy="519.854" r="2.2" fill="#b33a3a"/><circle cx="364.892" cy="519.854" r="2.2" fill="#b33a3a"/><circle cx="364.892" cy="561.931" r="2.2" fill="#b33a3a"/><circle cx="486.366" cy="561.931" r="2.2" fill="#b33a3a"/><circle cx="538.921" cy="561.931" r="2.2" fill="#b33a3a"/><circle cx="486.366" cy="611.347" r="2.2" fill="#b33a3a"/><circle cx="144.101" cy="612.313" r="2.2" fill="#b33a3a"/><circle cx="364.892" cy="613.219" r="2.2" fill="#b33a3a"/><text x="325.0" y="638" text-anchor="middle" font-family="sans-serif" font-size="12">69 physical streets; X/Y in local units</text><rect x="655.0" y="95.0" width="540.0" height="520.0" fill="#fafafa" stroke="#bbb"/><text x="925.0" y="80" text-anchor="middle" font-family="sans-serif" font-size="16">Env38 curvilinear geometry</text><polyline points="762.595,95.000 776.186,229.770" fill="none" stroke="#35618f" stroke-width="1.7"/><polyline points="1100.291,95.061 1104.850,117.992 1096.109,133.158" fill="none" stroke="#35618f" stroke-width="1.7"/><polyline points="965.932,97.342 954.289,144.192" fill="none" stroke="#35618f" stroke-width="1.7"/><polyline points="916.100,149.004 933.827,143.941 954.289,144.192" fill="none" stroke="#35618f" stroke-width="1.7"/><polyline points="916.100,149.004 916.100,149.004 897.263,157.504 883.699,165.171 865.418,189.350" fill="none" stroke="#35618f" stroke-width="1.7"/><polyline points="916.100,149.004 909.648,185.517" fill="none" stroke="#35618f" stroke-width="1.7"/><polyline points="954.289,144.192 976.900,143.523 1001.991,149.941 1021.247,161.028" fill="none" stroke="#35618f" stroke-width="1.7"/><polyline points="954.289,144.192 953.288,164.581 962.188,182.522" fill="none" stroke="#35618f" stroke-width="1.7"/><polyline points="1021.247,161.028 1037.440,145.565 1074.201,135.645 1096.109,133.158" fill="none" stroke="#35618f" stroke-width="1.7"/><polyline points="1021.247,161.028 1033.501,170.948 1038.752,187.870" fill="none" stroke="#35618f" stroke-width="1.7"/><polyline points="1096.109,133.158 1099.000,147.024 1097.541,170.364 1099.875,190.204 1093.786,202.384" fill="none" stroke="#35618f" stroke-width="1.7"/><polyline points="865.418,189.350 887.238,192.889 909.648,185.517" fill="none" stroke="#35618f" stroke-width="1.7"/><polyline points="865.418,189.350 861.879,199.081 857.751,210.286 854.802,226.798" fill="none" stroke="#35618f" stroke-width="1.7"/><polyline points="909.648,185.517 936.776,184.632 962.188,182.522" fill="none" stroke="#35618f" stroke-width="1.7"/><polyline points="909.648,185.517 895.750,221.781" fill="none" stroke="#35618f" stroke-width="1.7"/><polyline points="962.188,182.522 1007.243,175.616 1038.752,187.870" fill="none" stroke="#35618f" stroke-width="1.7"/><polyline points="962.188,182.522 972.160,197.606 976.288,212.940 973.983,228.715" fill="none" stroke="#35618f" stroke-width="1.7"/><polyline points="1038.752,187.870 1044.588,203.041" fill="none" stroke="#35618f" stroke-width="1.7"/><polyline points="708.695,222.965 720.490,225.914 723.734,235.202 736.118,235.497 747.913,238.593" fill="none" stroke="#35618f" stroke-width="1.7"/><polyline points="747.913,238.593 753.220,235.055 758.381,233.285 764.425,230.632 768.996,225.619 776.186,229.770" fill="none" stroke="#35618f" stroke-width="1.7"/><polyline points="747.913,238.593 738.244,316.242 741.340,383.737" fill="none" stroke="#35618f" stroke-width="1.7"/><polyline points="776.186,229.770 806.515,228.132 835.341,236.529 854.802,226.798" fill="none" stroke="#35618f" stroke-width="1.7"/><polyline points="776.186,229.770 777.923,251.472 780.496,309.656 780.496,329.707" fill="none" stroke="#35618f" stroke-width="1.7"/><polyline points="854.802,226.798 895.750,221.781" fill="none" stroke="#35618f" stroke-width="1.7"/><polyline points="854.802,226.798 856.113,252.639 866.247,281.250" fill="none" stroke="#35618f" stroke-width="1.7"/><polyline points="1044.588,203.041 1067.697,199.376 1093.786,202.384" fill="none" stroke="#35618f" stroke-width="1.7"/><polyline points="1044.588,203.041 1028.249,216.462 1005.492,226.381 973.983,228.715" fill="none" stroke="#35618f" stroke-width="1.7"/><polyline points="1044.588,203.041 1047.646,214.119 1047.351,250.978 1046.172,272.798" fill="none" stroke="#35618f" stroke-width="1.7"/><polyline points="1093.786,202.384 1108.044,207.417 1129.051,203.333 1136.994,207.494" fill="none" stroke="#35618f" stroke-width="1.7"/><polyline points="1093.786,202.384 1096.109,272.539" fill="none" stroke="#35618f" stroke-width="1.7"/><polyline points="973.983,228.715 951.519,222.375 927.340,225.914 895.750,221.781" fill="none" stroke="#35618f" stroke-width="1.7"/><polyline points="973.983,228.715 971.712,264.989" fill="none" stroke="#35618f" stroke-width="1.7"/><polyline points="895.750,221.781 913.186,242.426 913.186,256.580 901.981,261.888 907.770,283.915 907.770,284.142" fill="none" stroke="#35618f" stroke-width="1.7"/><polyline points="1096.109,272.539 1083.620,274.862 1061.505,275.452 1046.172,272.798" fill="none" stroke="#35618f" stroke-width="1.7"/><polyline points="1096.109,272.539 1096.270,336.219" fill="none" stroke="#35618f" stroke-width="1.7"/><polyline points="866.247,281.250 907.770,284.142" fill="none" stroke="#35618f" stroke-width="1.7"/><polyline points="866.247,281.250 879.571,312.015 897.853,324.989" fill="none" stroke="#35618f" stroke-width="1.7"/><polyline points="907.770,284.142 924.981,274.862 937.955,277.811 951.519,272.503 953.878,261.888 961.545,258.349 971.712,264.989" fill="none" stroke="#35618f" stroke-width="1.7"/><polyline points="907.770,284.142 906.699,299.631 912.596,316.733 929.699,333.835" fill="none" stroke="#35618f" stroke-width="1.7"/><polyline points="971.712,264.989 988.672,251.862 1003.416,249.503 1012.852,246.555 1022.877,248.913 1025.236,264.836 1046.172,272.798" fill="none" stroke="#35618f" stroke-width="1.7"/><polyline points="971.712,264.989 965.932,339.887" fill="none" stroke="#35618f" stroke-width="1.7"/><polyline points="1029.954,317.618 1037.326,306.708 1044.402,285.182 1046.172,272.798" fill="none" stroke="#35618f" stroke-width="1.7"/><polyline points="741.340,383.737 763.983,343.861 780.496,329.707" fill="none" stroke="#35618f" stroke-width="1.7"/><polyline points="741.340,383.737 731.105,405.193 732.285,472.423 739.951,515.474 756.771,528.068" fill="none" stroke="#35618f" stroke-width="1.7"/><polyline points="780.496,329.707 791.927,339.583 811.766,338.416 863.699,351.253 884.289,339.733 897.853,324.989" fill="none" stroke="#35618f" stroke-width="1.7"/><polyline points="780.496,329.707 782.591,369.342 789.010,438.780 794.748,458.225" fill="none" stroke="#35618f" stroke-width="1.7"/><polyline points="897.853,324.989 914.366,333.246 929.699,333.835" fill="none" stroke="#35618f" stroke-width="1.7"/><polyline points="929.699,333.835 965.932,339.887" fill="none" stroke="#35618f" stroke-width="1.7"/><polyline points="965.932,339.887 991.488,336.082 1007.097,330.830 1020.223,324.105 1029.954,317.618" fill="none" stroke="#35618f" stroke-width="1.7"/><polyline points="965.932,339.887 972.160,350.348 963.314,364.502 968.731,465.621 973.064,482.234" fill="none" stroke="#35618f" stroke-width="1.7"/><polyline points="1029.954,317.618 1057.425,309.240 1070.846,329.079 1096.270,336.219" fill="none" stroke="#35618f" stroke-width="1.7"/><polyline points="1029.954,317.618 1041.749,333.835 1044.697,432.911 1038.800,448.244 1048.236,457.090" fill="none" stroke="#35618f" stroke-width="1.7"/><polyline points="1096.270,336.219 1107.461,370.217 1113.401,475.372 1107.461,500.924" fill="none" stroke="#35618f" stroke-width="1.7"/><polyline points="756.771,528.068 778.137,494.833 781.675,477.141 794.748,458.225" fill="none" stroke="#35618f" stroke-width="1.7"/><polyline points="756.771,528.068 771.060,549.089 780.257,615.000" fill="none" stroke="#35618f" stroke-width="1.7"/><polyline points="794.748,458.225 810.016,451.617 833.940,442.864 902.794,457.452 973.064,482.234" fill="none" stroke="#35618f" stroke-width="1.7"/><polyline points="794.748,458.225 817.018,491.296 844.443,518.137 889.374,544.979 941.306,554.315 982.231,557.751" fill="none" stroke="#35618f" stroke-width="1.7"/><polyline points="973.064,482.234 987.403,493.046 1008.410,484.293 1026.415,464.757 1048.236,457.090" fill="none" stroke="#35618f" stroke-width="1.7"/><polyline points="973.064,482.234 977.429,521.520" fill="none" stroke="#35618f" stroke-width="1.7"/><polyline points="1048.236,457.090 1058.851,461.808 1065.633,488.936 1060.367,522.393" fill="none" stroke="#35618f" stroke-width="1.7"/><polyline points="1060.367,522.393 1091.706,512.594 1107.461,500.924" fill="none" stroke="#35618f" stroke-width="1.7"/><polyline points="1060.367,522.393 977.429,521.520" fill="none" stroke="#35618f" stroke-width="1.7"/><polyline points="1107.461,500.924 1123.799,510.843 1140.468,515.627" fill="none" stroke="#35618f" stroke-width="1.7"/><polyline points="1107.461,500.924 1108.493,554.695" fill="none" stroke="#35618f" stroke-width="1.7"/><polyline points="977.429,521.520 982.231,557.751" fill="none" stroke="#35618f" stroke-width="1.7"/><polyline points="982.231,557.751 1022.268,559.858 1085.287,559.858 1108.493,554.695" fill="none" stroke="#35618f" stroke-width="1.7"/><polyline points="982.231,557.751 981.140,612.751" fill="none" stroke="#35618f" stroke-width="1.7"/><polyline points="1108.493,554.695 1127.300,561.609 1141.305,562.776" fill="none" stroke="#35618f" stroke-width="1.7"/><polyline points="1108.493,554.695 1098.125,568.611 1097.541,597.786 1090.539,612.374" fill="none" stroke="#35618f" stroke-width="1.7"/><circle cx="762.595" cy="95.000" r="2.2" fill="#b33a3a"/><circle cx="1100.291" cy="95.061" r="2.2" fill="#b33a3a"/><circle cx="965.932" cy="97.342" r="2.2" fill="#b33a3a"/><circle cx="916.100" cy="149.004" r="2.2" fill="#b33a3a"/><circle cx="954.289" cy="144.192" r="2.2" fill="#b33a3a"/><circle cx="1021.247" cy="161.028" r="2.2" fill="#b33a3a"/><circle cx="1096.109" cy="133.158" r="2.2" fill="#b33a3a"/><circle cx="865.418" cy="189.350" r="2.2" fill="#b33a3a"/><circle cx="909.648" cy="185.517" r="2.2" fill="#b33a3a"/><circle cx="962.188" cy="182.522" r="2.2" fill="#b33a3a"/><circle cx="1038.752" cy="187.870" r="2.2" fill="#b33a3a"/><circle cx="708.695" cy="222.965" r="2.2" fill="#b33a3a"/><circle cx="747.913" cy="238.593" r="2.2" fill="#b33a3a"/><circle cx="776.186" cy="229.770" r="2.2" fill="#b33a3a"/><circle cx="854.802" cy="226.798" r="2.2" fill="#b33a3a"/><circle cx="1044.588" cy="203.041" r="2.2" fill="#b33a3a"/><circle cx="1093.786" cy="202.384" r="2.2" fill="#b33a3a"/><circle cx="1136.994" cy="207.494" r="2.2" fill="#b33a3a"/><circle cx="973.983" cy="228.715" r="2.2" fill="#b33a3a"/><circle cx="895.750" cy="221.781" r="2.2" fill="#b33a3a"/><circle cx="1096.109" cy="272.539" r="2.2" fill="#b33a3a"/><circle cx="866.247" cy="281.250" r="2.2" fill="#b33a3a"/><circle cx="907.770" cy="284.142" r="2.2" fill="#b33a3a"/><circle cx="971.712" cy="264.989" r="2.2" fill="#b33a3a"/><circle cx="1046.172" cy="272.798" r="2.2" fill="#b33a3a"/><circle cx="741.340" cy="383.737" r="2.2" fill="#b33a3a"/><circle cx="780.496" cy="329.707" r="2.2" fill="#b33a3a"/><circle cx="897.853" cy="324.989" r="2.2" fill="#b33a3a"/><circle cx="929.699" cy="333.835" r="2.2" fill="#b33a3a"/><circle cx="965.932" cy="339.887" r="2.2" fill="#b33a3a"/><circle cx="1029.954" cy="317.618" r="2.2" fill="#b33a3a"/><circle cx="1096.270" cy="336.219" r="2.2" fill="#b33a3a"/><circle cx="756.771" cy="528.068" r="2.2" fill="#b33a3a"/><circle cx="794.748" cy="458.225" r="2.2" fill="#b33a3a"/><circle cx="973.064" cy="482.234" r="2.2" fill="#b33a3a"/><circle cx="1048.236" cy="457.090" r="2.2" fill="#b33a3a"/><circle cx="1060.367" cy="522.393" r="2.2" fill="#b33a3a"/><circle cx="1107.461" cy="500.924" r="2.2" fill="#b33a3a"/><circle cx="1140.468" cy="515.627" r="2.2" fill="#b33a3a"/><circle cx="977.429" cy="521.520" r="2.2" fill="#b33a3a"/><circle cx="982.231" cy="557.751" r="2.2" fill="#b33a3a"/><circle cx="1108.493" cy="554.695" r="2.2" fill="#b33a3a"/><circle cx="1141.305" cy="562.776" r="2.2" fill="#b33a3a"/><circle cx="1090.539" cy="612.374" r="2.2" fill="#b33a3a"/><circle cx="780.257" cy="615.000" r="2.2" fill="#b33a3a"/><circle cx="981.140" cy="612.751" r="2.2" fill="#b33a3a"/><text x="925.0" y="638" text-anchor="middle" font-family="sans-serif" font-size="12">69 physical streets; X/Y in local units</text></svg>