<svg xmlns="http://www.w3.org/2000/svg" width="1200" height="680" viewBox="0 0 1200 680" role="img" aria-label="Segment-length-weighted orientation comparison"><rect width="100%" height="100%" fill="white"/><text x="600.0" y="27" text-anchor="middle" font-family="sans-serif" font-size="20" font-weight="bold">Segment-length-weighted orientation comparison</text><text x="600.0" y="48" text-anchor="middle" font-family="sans-serif" font-size="13" fill="#444">Local-length-weighted axial probabilities; common 36 bins of 5 degrees over [0, 180).</text><line x1="90.0" y1="545.0" x2="1165.0" y2="545.0" stroke="#333"/><line x1="90.0" y1="90.0" x2="90.0" y2="545.0" stroke="#333"/><rect x="97.465" y="90.000" width="7.465" height="455.000" fill="#35618f"/><rect x="104.931" y="487.255" width="7.465" height="57.745" fill="#c05a35"/><text x="104.931" y="569.000" text-anchor="middle" font-family="sans-serif" font-size="11" transform="rotate(25 104.931 569.000)">2.5°</text><rect x="127.326" y="545.000" width="7.465" height="0.000" fill="#35618f"/><rect x="134.792" y="521.683" width="7.465" height="23.317" fill="#c05a35"/><text x="134.792" y="569.000" text-anchor="middle" font-family="sans-serif" font-size="11" transform="rotate(25 134.792 569.000)">7.5°</text><rect x="157.188" y="545.000" width="7.465" height="0.000" fill="#35618f"/><rect x="164.653" y="518.912" width="7.465" height="26.088" fill="#c05a35"/><text x="164.653" y="569.000" text-anchor="middle" font-family="sans-serif" font-size="11" transform="rotate(25 164.653 569.000)">12.5°</text><rect x="187.049" y="545.000" width="7.465" height="0.000" fill="#35618f"/><rect x="194.514" y="539.524" width="7.465" height="5.476" fill="#c05a35"/><text x="194.514" y="569.000" text-anchor="middle" font-family="sans-serif" font-size="11" transform="rotate(25 194.514 569.000)">17.5°</text><rect x="216.910" y="545.000" width="7.465" height="0.000" fill="#35618f"/><rect x="224.375" y="533.852" width="7.465" height="11.148" fill="#c05a35"/><text x="224.375" y="569.000" text-anchor="middle" font-family="sans-serif" font-size="11" transform="rotate(25 224.375 569.000)">22.5°</text><rect x="246.771" y="545.000" width="7.465" height="0.000" fill="#35618f"/><rect x="254.236" y="525.604" width="7.465" height="19.396" fill="#c05a35"/><text x="254.236" y="569.000" text-anchor="middle" font-family="sans-serif" font-size="11" transform="rotate(25 254.236 569.000)">27.5°</text><rect x="276.632" y="545.000" width="7.465" height="0.000" fill="#35618f"/><rect x="284.097" y="529.680" width="7.465" height="15.320" fill="#c05a35"/><text x="284.097" y="569.000" text-anchor="middle" font-family="sans-serif" font-size="11" transform="rotate(25 284.097 569.000)">32.5°</text><rect x="306.493" y="545.000" width="7.465" height="0.000" fill="#35618f"/><rect x="313.958" y="537.093" width="7.465" height="7.907" fill="#c05a35"/><text x="313.958" y="569.000" text-anchor="middle" font-family="sans-serif" font-size="11" transform="rotate(25 313.958 569.000)">37.5°</text><rect x="336.354" y="545.000" width="7.465" height="0.000" fill="#35618f"/><rect x="343.819" y="536.145" width="7.465" height="8.855" fill="#c05a35"/><text x="343.819" y="569.000" text-anchor="middle" font-family="sans-serif" font-size="11" transform="rotate(25 343.819 569.000)">42.5°</text><rect x="366.215" y="545.000" width="7.465" height="0.000" fill="#35618f"/><rect x="373.681" y="537.679" width="7.465" height="7.321" fill="#c05a35"/><text x="373.681" y="569.000" text-anchor="middle" font-family="sans-serif" font-size="11" transform="rotate(25 373.681 569.000)">47.5°</text><rect x="396.076" y="545.000" width="7.465" height="0.000" fill="#35618f"/><rect x="403.542" y="534.683" width="7.465" height="10.317" fill="#c05a35"/><text x="403.542" y="569.000" text-anchor="middle" font-family="sans-serif" font-size="11" transform="rotate(25 403.542 569.000)">52.5°</text><rect x="425.938" y="545.000" width="7.465" height="0.000" fill="#35618f"/><rect x="433.403" y="542.002" width="7.465" height="2.998" fill="#c05a35"/><text x="433.403" y="569.000" text-anchor="middle" font-family="sans-serif" font-size="11" transform="rotate(25 433.403 569.000)">57.5°</text><rect x="455.799" y="545.000" width="7.465" height="0.000" fill="#35618f"/><rect x="463.264" y="527.146" width="7.465" height="17.854" fill="#c05a35"/><text x="463.264" y="569.000" text-anchor="middle" font-family="sans-serif" font-size="11" transform="rotate(25 463.264 569.000)">62.5°</text><rect x="485.660" y="545.000" width="7.465" height="0.000" fill="#35618f"/><rect x="493.125" y="521.783" width="7.465" height="23.217" fill="#c05a35"/><text x="493.125" y="569.000" text-anchor="middle" font-family="sans-serif" font-size="11" transform="rotate(25 493.125 569.000)">67.5°</text><rect x="515.521" y="545.000" width="7.465" height="0.000" fill="#35618f"/><rect x="522.986" y="512.390" width="7.465" height="32.610" fill="#c05a35"/><text x="522.986" y="569.000" text-anchor="middle" font-family="sans-serif" font-size="11" transform="rotate(25 522.986 569.000)">72.5°</text><rect x="545.382" y="545.000" width="7.465" height="0.000" fill="#35618f"/><rect x="552.847" y="535.400" width="7.465" height="9.600" fill="#c05a35"/><text x="552.847" y="569.000" text-anchor="middle" font-family="sans-serif" font-size="11" transform="rotate(25 552.847 569.000)">77.5°</text><rect x="575.243" y="545.000" width="7.465" height="0.000" fill="#35618f"/><rect x="582.708" y="512.242" width="7.465" height="32.758" fill="#c05a35"/><text x="582.708" y="569.000" text-anchor="middle" font-family="sans-serif" font-size="11" transform="rotate(25 582.708 569.000)">82.5°</text><rect x="605.104" y="545.000" width="7.465" height="0.000" fill="#35618f"/><rect x="612.569" y="515.271" width="7.465" height="29.729" fill="#c05a35"/><text x="612.569" y="569.000" text-anchor="middle" font-family="sans-serif" font-size="11" transform="rotate(25 612.569 569.000)">87.5°</text><rect x="634.965" y="160.627" width="7.465" height="384.373" fill="#35618f"/><rect x="642.431" y="490.096" width="7.465" height="54.904" fill="#c05a35"/><text x="642.431" y="569.000" text-anchor="middle" font-family="sans-serif" font-size="11" transform="rotate(25 642.431 569.000)">92.5°</text><rect x="664.826" y="545.000" width="7.465" height="0.000" fill="#35618f"/><rect x="672.292" y="523.018" width="7.465" height="21.982" fill="#c05a35"/><text x="672.292" y="569.000" text-anchor="middle" font-family="sans-serif" font-size="11" transform="rotate(25 672.292 569.000)">97.5°</text><rect x="694.687" y="545.000" width="7.465" height="0.000" fill="#35618f"/><rect x="702.153" y="503.449" width="7.465" height="41.551" fill="#c05a35"/><text x="702.153" y="569.000" text-anchor="middle" font-family="sans-serif" font-size="11" transform="rotate(25 702.153 569.000)">102.5°</text><rect x="724.549" y="545.000" width="7.465" height="0.000" fill="#35618f"/><rect x="732.014" y="514.023" width="7.465" height="30.977" fill="#c05a35"/><text x="732.014" y="569.000" text-anchor="middle" font-family="sans-serif" font-size="11" transform="rotate(25 732.014 569.000)">107.5°</text><rect x="754.410" y="545.000" width="7.465" height="0.000" fill="#35618f"/><rect x="761.875" y="530.426" width="7.465" height="14.574" fill="#c05a35"/><text x="761.875" y="569.000" text-anchor="middle" font-family="sans-serif" font-size="11" transform="rotate(25 761.875 569.000)">112.5°</text><rect x="784.271" y="545.000" width="7.465" height="0.000" fill="#35618f"/><rect x="791.736" y="535.387" width="7.465" height="9.613" fill="#c05a35"/><text x="791.736" y="569.000" text-anchor="middle" font-family="sans-serif" font-size="11" transform="rotate(25 791.736 569.000)">117.5°</text><rect x="814.132" y="545.000" width="7.465" height="0.000" fill="#35618f"/><rect x="821.597" y="531.134" width="7.465" height="13.866" fill="#c05a35"/><text x="821.597" y="569.000" text-anchor="middle" font-family="sans-serif" font-size="11" transform="rotate(25 821.597 569.000)">122.5°</text><rect x="843.993" y="545.000" width="7.465" height="0.000" fill="#35618f"/><rect x="851.458" y="532.202" width="7.465" height="12.798" fill="#c05a35"/><text x="851.458" y="569.000" text-anchor="middle" font-family="sans-serif" font-size="11" transform="rotate(25 851.458 569.000)">127.5°</text><rect x="873.854" y="545.000" width="7.465" height="0.000" fill="#35618f"/><rect x="881.319" y="533.984" width="7.465" height="11.016" fill="#c05a35"/><text x="881.319" y="569.000" text-anchor="middle" font-family="sans-serif" font-size="11" transform="rotate(25 881.319 569.000)">132.5°</text><rect x="903.715" y="545.000" width="7.465" height="0.000" fill="#35618f"/><rect x="911.181" y="536.506" width="7.465" height="8.494" fill="#c05a35"/><text x="911.181" y="569.000" text-anchor="middle" font-family="sans-serif" font-size="11" transform="rotate(25 911.181 569.000)">137.5°</text><rect x="933.576" y="545.000" width="7.465" height="0.000" fill="#35618f"/><rect x="941.042" y="541.674" width="7.465" height="3.326" fill="#c05a35"/><text x="941.042" y="569.000" text-anchor="middle" font-family="sans-serif" font-size="11" transform="rotate(25 941.042 569.000)">142.5°</text><rect x="963.437" y="545.000" width="7.465" height="0.000" fill="#35618f"/><rect x="970.903" y="525.179" width="7.465" height="19.821" fill="#c05a35"/><text x="970.903" y="569.000" text-anchor="middle" font-family="sans-serif" font-size="11" transform="rotate(25 970.903 569.000)">147.5°</text><rect x="993.299" y="545.000" width="7.465" height="0.000" fill="#35618f"/><rect x="1000.764" y="541.678" width="7.465" height="3.322" fill="#c05a35"/><text x="1000.764" y="569.000" text-anchor="middle" font-family="sans-serif" font-size="11" transform="rotate(25 1000.764 569.000)">152.5°</text><rect x="1023.160" y="545.000" width="7.465" height="0.000" fill="#35618f"/><rect x="1030.625" y="536.743" width="7.465" height="8.257" fill="#c05a35"/><text x="1030.625" y="569.000" text-anchor="middle" font-family="sans-serif" font-size="11" transform="rotate(25 1030.625 569.000)">157.5°</text><rect x="1053.021" y="545.000" width="7.465" height="0.000" fill="#35618f"/><rect x="1060.486" y="518.553" width="7.465" height="26.447" fill="#c05a35"/><text x="1060.486" y="569.000" text-anchor="middle" font-family="sans-serif" font-size="11" transform="rotate(25 1060.486 569.000)">162.5°</text><rect x="1082.882" y="545.000" width="7.465" height="0.000" fill="#35618f"/><rect x="1090.347" y="520.255" width="7.465" height="24.745" fill="#c05a35"/><text x="1090.347" y="569.000" text-anchor="middle" font-family="sans-serif" font-size="11" transform="rotate(25 1090.347 569.000)">167.5°</text><rect x="1112.743" y="545.000" width="7.465" height="0.000" fill="#35618f"/><rect x="1120.208" y="481.323" width="7.465" height="63.677" fill="#c05a35"/><text x="1120.208" y="569.000" text-anchor="middle" font-family="sans-serif" font-size="11" transform="rotate(25 1120.208 569.000)">172.5°</text><rect x="1142.604" y="545.000" width="7.465" height="0.000" fill="#35618f"/><rect x="1150.069" y="416.656" width="7.465" height="128.344" fill="#c05a35"/><text x="1150.069" y="569.000" text-anchor="middle" font-family="sans-serif" font-size="11" transform="rotate(25 1150.069 569.000)">177.5°</text><rect x="950" y="66" width="13" height="13" fill="#35618f"/><text x="969" y="77" font-family="sans-serif" font-size="12">Env39</text><rect x="1040" y="66" width="13" height="13" fill="#c05a35"/><text x="1059" y="77" font-family="sans-serif" font-size="12">Env38</text><text x="20" y="340.0" text-anchor="middle" transform="rotate(-90 20 340.0)" font-family="sans-serif" font-size="13">Probability</text></svg>